<svg id="Layer_1" data-name="Layer 1" xmlns="http://www.w3.org/2000/svg" viewBox="0 0 479.25 381.05"><defs><style>.cls-1{fill:#fff;}.cls-2{fill:#f47c20;}</style></defs><rect class="cls-1" width="479.25" height="381.05"/><rect class="cls-2" x="13.28" y="14.29" width="327.61" height="274.59"/><path class="cls-1" d="M353.67,270.06h-35V121H267.5V61.84h86.17Z" transform="translate(-12.58 -14.42)"/><path class="cls-2" d="M353.55,61.84h86.17V121H388.55v149.1h-35Z" transform="translate(-12.58 -14.42)"/><path class="cls-1" d="M182.72,270.44h-70V121.32H61.55V62.2H233.9v59.11H182.72Z" transform="translate(-12.58 -14.42)"/><rect class="cls-2" x="5.42" y="301.66" width="247.78" height="74.31"/><path class="cls-2" d="M297.29,352.37a29.42,29.42,0,0,1,2.33-11.92,26.51,26.51,0,0,1,6.41-9,28.49,28.49,0,0,1,9.67-5.75,37.35,37.35,0,0,1,24.22,0,28.94,28.94,0,0,1,9.71,5.75,26.25,26.25,0,0,1,6.44,9,29.43,29.43,0,0,1,2.33,11.92,30.25,30.25,0,0,1-2.33,12,27.18,27.18,0,0,1-6.44,9.28,29,29,0,0,1-9.71,5.94,36.05,36.05,0,0,1-24.22,0,28.52,28.52,0,0,1-9.67-5.94,27.45,27.45,0,0,1-6.41-9.28A30.25,30.25,0,0,1,297.29,352.37Zm19.64,0a14.47,14.47,0,0,0,.82,5,11.92,11.92,0,0,0,2.25,3.88,9.83,9.83,0,0,0,3.46,2.52,10.61,10.61,0,0,0,4.35.89,10.26,10.26,0,0,0,7.77-3.42,11.6,11.6,0,0,0,2.29-3.88,14.47,14.47,0,0,0,.82-5,13.92,13.92,0,0,0-.82-4.85,10.43,10.43,0,0,0-2.29-3.73,10.67,10.67,0,0,0-7.77-3.22,11,11,0,0,0-4.35.85,10.16,10.16,0,0,0-3.46,2.37,10.69,10.69,0,0,0-2.25,3.73A13.92,13.92,0,0,0,316.93,352.37Z" transform="translate(-12.58 -14.42)"/><path class="cls-2" d="M373.92,325.2h18.4L408,353.07h.31l-.78-27.87h17.55v55H406.21L391,353.93h-.31l.78,26.24H373.92Z" transform="translate(-12.58 -14.42)"/><path class="cls-2" d="M443.09,325.2H480.9v15.37H460.48v4.74h19.18v14.36H460.48v5.12h21.74v15.37H443.09Z" transform="translate(-12.58 -14.42)"/><path class="cls-1" d="M265.86,380.11h-9.24V340.75H243.11V325.14h22.75Z" transform="translate(-12.58 -14.42)"/><path class="cls-2" d="M265.83,325.14h22.75v15.61H275.06v39.36h-9.24Z" transform="translate(-12.58 -14.42)"/><path class="cls-1" d="M58.53,380.08H40V340.72H26.54v-15.6H72v15.6H58.53Z" transform="translate(-12.58 -14.42)"/><path class="cls-1" d="M114,380.08H95.32l-15-55H99.9l5.9,30.9h.31l6.37-30.9h19.33l6.91,30.9H139l6-30.9H164l-15.29,55H130L122.26,349H122Z" transform="translate(-12.58 -14.42)"/><path class="cls-1" d="M173.43,352.29a29.41,29.41,0,0,1,2.33-11.92,26.48,26.48,0,0,1,6.4-9,28.48,28.48,0,0,1,9.67-5.75,37.34,37.34,0,0,1,24.22,0,28.92,28.92,0,0,1,9.7,5.75,26.24,26.24,0,0,1,6.44,9,29.41,29.41,0,0,1,2.33,11.92,30.23,30.23,0,0,1-2.33,12,27.17,27.17,0,0,1-6.44,9.28,28.93,28.93,0,0,1-9.7,5.94,36,36,0,0,1-24.22,0,28.5,28.5,0,0,1-9.67-5.94,27.43,27.43,0,0,1-6.4-9.28A30.24,30.24,0,0,1,173.43,352.29Zm19.64,0a14.5,14.5,0,0,0,.81,5,12,12,0,0,0,2.25,3.88,9.85,9.85,0,0,0,3.46,2.52,10.61,10.61,0,0,0,4.35.89,10.25,10.25,0,0,0,7.76-3.42,11.61,11.61,0,0,0,2.29-3.88,14.5,14.5,0,0,0,.82-5,14,14,0,0,0-.82-4.85,10.44,10.44,0,0,0-2.29-3.73,10.66,10.66,0,0,0-7.76-3.22,11.05,11.05,0,0,0-4.35.85,10.16,10.16,0,0,0-3.46,2.37,10.72,10.72,0,0,0-2.25,3.73A14,14,0,0,0,193.07,352.29Z" transform="translate(-12.58 -14.42)"/></svg>