<?xml version="1.0" encoding="UTF-8" standalone="no"?>
<!DOCTYPE svg PUBLIC "-//W3C//DTD SVG 1.1//EN" "http://www.w3.org/Graphics/SVG/1.1/DTD/svg11.dtd">
<svg width="100%" height="100%" viewBox="0 0 39 39" version="1.1" xmlns="http://www.w3.org/2000/svg" xmlns:xlink="http://www.w3.org/1999/xlink" xml:space="preserve" xmlns:serif="http://www.serif.com/" style="fill-rule:evenodd;clip-rule:evenodd;stroke-linejoin:round;stroke-miterlimit:2;">
    <path d="M26.655,21L29,21L29,24L23.655,24L21.793,25.862L19.931,24L18.064,24L20.276,26.138L18.76,26.571L29,26.571L29,29.571L10,29.571L10,26.571L14.795,26.571L15.574,24L10,24L10,21L16.931,21L16.552,20.621L19.172,18L10,18L10,15L22.172,15L28.414,8.759L28.69,8.621L29.793,7.517C29.241,6.69 28.276,6.138 27.172,6.138L25.517,6.138C25.241,4.759 24.138,3.793 22.759,3.793L21.103,3.793L21.103,3.655C21.103,2.69 20.276,2 19.448,2L19.172,2C18.207,2 17.517,2.828 17.517,3.655L17.517,3.793L15.724,3.793C14.345,3.793 13.241,4.759 12.966,6.138L11.31,6.138C9.517,6.138 8,7.655 8,9.448L8,30.69C8,32.483 9.517,34 11.31,34L27.172,34C28.966,34 30.483,32.483 30.483,30.69L30.483,17.172L26.655,21ZM19.172,4.621C18.621,4.621 18.207,4.207 18.207,3.655C18.207,3.103 18.621,2.69 19.172,2.69C19.724,2.69 20.138,3.103 20.138,3.655C20.138,4.345 19.724,4.621 19.172,4.621Z" style="fill-rule:nonzero;stroke:black;stroke-width:1px;"/>
    <g transform="matrix(1.37931,0,0,1.37931,-6.62069,-7.65517)">
        <g id="Layer1">
            <path d="M25.6,11.8L26.4,11C26,10.4 25.3,10 24.5,10L23.3,10C23.1,9 22.3,8.3 21.3,8.3L20.1,8.3L20.1,8.2C20.1,7.5 19.5,7 18.9,7L18.7,7C18,7 17.5,7.6 17.5,8.2L17.5,8.3L16.2,8.3C15.2,8.3 14.4,9 14.2,10L13,10C11.7,10 10.6,11.1 10.6,12.4L10.6,27.8C10.6,29.1 11.7,30.2 13,30.2L24.5,30.2C25.8,30.2 26.9,29.1 26.9,27.8L26.9,18L20.6,24.3L16.8,20.5L25.4,11.9L25.6,11.8ZM19.5,24.5L16,25.5L15.5,24.9L16.5,21.6L19.5,24.5ZM18.7,8.9C18.3,8.9 18,8.6 18,8.2C18,7.8 18.3,7.5 18.7,7.5C19.1,7.5 19.4,7.8 19.4,8.2C19.4,8.7 19.1,8.9 18.7,8.9Z" style="fill:none;fill-rule:nonzero;stroke:black;stroke-width:0.73px;"/>
        </g>
    </g>
</svg>
