<?xml version="1.0" encoding="UTF-8" standalone="no"?>
<!DOCTYPE svg PUBLIC "-//W3C//DTD SVG 1.1//EN" "http://www.w3.org/Graphics/SVG/1.1/DTD/svg11.dtd">
<svg width="100%" height="100%" viewBox="0 0 39 39" version="1.1" xmlns="http://www.w3.org/2000/svg" xmlns:xlink="http://www.w3.org/1999/xlink" xml:space="preserve" xmlns:serif="http://www.serif.com/" style="fill-rule:evenodd;clip-rule:evenodd;stroke-linejoin:round;stroke-miterlimit:2;">
    <g transform="matrix(1.37931,0,0,1.37931,-6.62069,-7.65517)">
        <path d="M25.6,11.8L26.4,11C26,10.4 25.3,10 24.5,10L23.3,10C23.1,9 22.3,8.3 21.3,8.3L20.1,8.3L20.1,8.2C20.1,7.5 19.5,7 18.9,7L18.7,7C18,7 17.5,7.6 17.5,8.2L17.5,8.3L16.2,8.3C15.2,8.3 14.4,9 14.2,10L13,10C11.7,10 10.6,11.1 10.6,12.4L10.6,27.8C10.6,29.1 11.7,30.2 13,30.2L24.5,30.2C25.8,30.2 26.9,29.1 26.9,27.8L26.9,18L20.6,24.3L16.8,20.5L25.4,11.9L25.6,11.8ZM19.5,24.5L16,25.5L15.5,24.9L16.5,21.6L19.5,24.5ZM18.7,8.9C18.3,8.9 18,8.6 18,8.2C18,7.8 18.3,7.5 18.7,7.5C19.1,7.5 19.4,7.8 19.4,8.2C19.4,8.7 19.1,8.9 18.7,8.9Z" style="fill-rule:nonzero;"/>
    </g>
</svg>
